<svg width="20" height="20" viewBox="0 0 20 20" fill="none" xmlns="http://www.w3.org/2000/svg">
<g clip-path="url(#clip0_3431_4415)">
<path d="M12.6663 16L12.6663 14.6667C12.6663 13.9594 12.3854 13.2811 11.8853 12.781C11.3852 12.281 10.7069 12 9.99968 12H5.99968C5.29244 12 4.61416 12.281 4.11406 12.781C3.61397 13.2811 3.33301 13.9594 3.33301 14.6667L3.33302 16M13.333 7.33333L16.6663 10.6667M16.6663 7.33333L13.333 10.6667M10.6663 6.66667C10.6663 8.13943 9.47244 9.33333 7.99968 9.33333C6.52692 9.33333 5.33301 8.13943 5.33301 6.66667C5.33301 5.19391 6.52692 4 7.99967 4C9.47243 4 10.6663 5.19391 10.6663 6.66667Z" stroke="#09090B" stroke-width="2" stroke-linecap="round" stroke-linejoin="round"/>
</g>
<defs>
<clipPath id="clip0_3431_4415">
<rect width="16" height="16" fill="white" transform="translate(2 2)"/>
</clipPath>
</defs>
</svg>
